<?xml version="1.0" encoding="utf-8"?>
<!-- Generator: Adobe Illustrator 26.2.1, SVG Export Plug-In . SVG Version: 6.00 Build 0)  -->
<svg version="1.1" id="Layer_1" xmlns="http://www.w3.org/2000/svg" xmlns:xlink="http://www.w3.org/1999/xlink" x="0px" y="0px"
	 viewBox="0 0 283.5 27.8" style="enable-background:new 0 0 283.5 27.8;" xml:space="preserve">
<style type="text/css">
	.st0{fill:#3491F9;}
</style>
<path class="st0" d="M0,0v6.7c1.9-0.8,4.7-1.4,8.5-1c9.5,1.1,11.1,6,11.1,6s2.1-0.7,4.3-0.2c2.1,0.5,2.8,2.6,2.8,2.6
	s0.2-0.5,1.4-0.7c1.2-0.2,1.7,0.2,1.7,0.2s0-2.1,1.9-2.8c1.9-0.7,3.6,0.7,3.6,0.7s0.7-2.9,3.1-4.1s4.7,0,4.7,0s1.2-0.5,2.4,0
	s1.7,1.4,1.7,1.4h1.4c0.7,0,1.2,0.7,1.2,0.7s0.8-1.8,4-2.2c3.5-0.4,5.3,2.4,6.2,4.4c0.4-0.4,1-0.7,1.8-0.9c2.8-0.7,4,0.7,4,0.7
	s1.7-5,11.1-6c9.5-1.1,12.3,3.9,12.3,3.9s1.2-4.8,5.7-5.7s6.8,1.8,6.8,1.8s0.6-0.6,1.5-0.9c0.9-0.2,1.9-0.2,1.9-0.2
	s5.2-6.4,12.6-3.3c7.3,3.1,4.7,9,4.7,9s1.9-0.9,4,0s2.8,2.4,2.8,2.4s1.9-1.2,4.5-1.2s4.3,1.2,4.3,1.2s0.2-1,1.4-1.7s2.1-0.7,2.1-0.7
	S141,7,143.6,4.6s5.7-1.4,5.7-1.4s1.5-2.3,4.2-1.1s1.7,5.2,1.7,5.2s0.3-0.1,1.3,0.5c0.5,0.4,0.8,0.8,0.9,1.1c0.5-1.4,2.4-5.8,8.4-4
	c7.1,2.1,3.5,8.9,3.5,8.9s0.8-0.4,2,0s1.1,1.1,1.1,1.1s1.1-1.1,2.3-1.1s2.1,0.5,2.1,0.5s1.9-3.6,6.2-1.2s1.9,6.4,1.9,6.4
	s2.6-2.4,7.4,0c3.4,1.7,3.9,4.9,3.9,4.9s3.3-6.9,10.4-7.9s11.5,2.6,11.5,2.6s0.8,0,1.2,0.2s0.9,0.9,0.9,0.9s4.4-3.1,8.3,0.2
	c1.9,1.7,1.5,5,1.5,5s0.3-1.1,1.6-1.4s2.3,0.2,2.3,0.2s-0.1-1.2,0.5-1.9s1.9-0.9,1.9-0.9s-4.7-9.3,4.4-13.4c5.6-2.5,9.2,0.9,9.2,0.9
	s5-6.2,15.9-6.2s16.1,8.1,16.1,8.1s0.7-0.2,1.6-0.4V0H0z"/>
</svg>
